<?xml version="1.0" standalone="no"?>
<!DOCTYPE svg PUBLIC "-//W3C//DTD SVG 20010904//EN"
 "http://www.w3.org/TR/2001/REC-SVG-20010904/DTD/svg10.dtd">
<svg  version="1.0" xmlns="http://www.w3.org/2000/svg"
  viewBox="0 0 512.000000 512.000000"
 preserveAspectRatio="xMidYMid meet">

<g transform="translate(0.000000,512.000000) scale(0.100000,-0.100000)"
fill="none" stroke="#000" stroke-width="40px" >
<path d="M1523 4650 c-24 -10 -43 -39 -43 -67 0 -11 16 -34 35 -53 l34 -33
-34 -39 c-40 -43 -45 -78 -15 -108 30 -30 73 -25 115 11 l36 32 32 -32 c38
-36 78 -40 107 -11 28 28 25 64 -11 104 l-31 36 31 37 c35 43 39 71 13 104
-28 34 -76 30 -115 -9 l-31 -32 -31 29 c-35 34 -62 43 -92 31z"/>
<path d="M2600 4279 c-581 -57 -1073 -521 -1176 -1109 -20 -115 -14 -375 10
-485 59 -262 170 -465 367 -671 199 -208 241 -304 257 -579 8 -135 9 -142 39
-186 17 -24 47 -54 67 -64 33 -18 36 -22 30 -53 -4 -21 0 -49 11 -78 16 -41
16 -48 1 -85 -21 -53 -20 -84 5 -137 16 -32 34 -51 70 -70 l49 -27 0 -58 c0
-37 7 -71 19 -96 24 -45 81 -98 119 -108 15 -5 140 -8 277 -8 240 0 252 1 292
22 73 39 113 114 113 211 0 37 3 44 28 53 34 13 70 46 88 81 18 36 18 112 -1
148 -14 27 -14 33 0 60 23 44 19 121 -7 160 -49 72 -59 75 -264 78 l-184 3 -1
617 c0 339 -3 625 -7 634 -16 39 -366 449 -389 454 -24 7 -373 -126 -405 -154
-24 -20 -23 -74 0 -95 29 -27 59 -21 217 43 82 33 152 57 156 53 4 -5 71 -84
148 -178 l141 -169 0 -604 0 -603 -210 3 -210 3 -27 28 c-27 27 -28 31 -34
175 -7 160 -25 234 -81 347 -47 92 -82 139 -193 255 -56 58 -122 135 -147 171
-100 139 -171 306 -204 476 -23 117 -23 319 0 436 83 427 391 779 803 917 96
32 253 60 336 60 58 0 85 13 97 46 13 32 -10 79 -42 88 -27 7 -43 6 -158 -5z
m534 -3145 c9 -8 16 -19 16 -23 0 -29 -36 -31 -421 -29 -380 3 -394 4 -397 22
-9 44 10 46 409 46 330 0 380 -2 393 -16z m5 -208 c15 -18 4 -45 -23 -51 -11
-3 -189 -4 -395 -3 -331 3 -375 5 -384 19 -6 9 -7 24 -4 33 6 14 45 16 400 16
322 0 397 -3 406 -14z m-129 -236 c0 -37 -5 -55 -20 -70 -19 -19 -33 -20 -249
-20 -258 0 -266 2 -278 72 -11 71 -24 68 277 68 l270 0 0 -50z"/>
<path d="M3137 4225 c-70 -18 -137 -56 -172 -97 l-25 -30 0 -1238 c0 -900 3
-1246 11 -1264 7 -15 32 -34 63 -48 43 -20 67 -23 161 -23 124 0 151 9 220 76
l40 38 49 -14 c181 -55 380 44 469 233 30 62 32 74 31 171 0 101 1 105 29 135
39 43 76 107 93 164 16 52 20 185 6 221 -7 21 1 33 74 105 121 120 174 239
174 391 0 212 -127 396 -321 465 l-54 18 -8 68 c-21 192 -160 330 -342 342
-71 4 -76 6 -81 31 -19 87 -40 128 -88 176 -80 80 -206 111 -329 80z m193
-147 c54 -28 90 -90 90 -155 0 -36 -7 -50 -46 -95 -80 -89 -108 -188 -84 -301
14 -70 81 -174 117 -183 33 -9 71 10 83 41 10 27 9 30 -45 120 -43 70 -31 168
29 233 96 106 278 67 346 -74 20 -41 22 -55 16 -133 -8 -105 -1 -115 89 -132
116 -21 202 -82 253 -178 77 -144 52 -320 -62 -448 -71 -78 -82 -81 -162 -42
-63 31 -77 34 -159 34 -80 0 -97 -4 -155 -31 -115 -55 -152 -108 -114 -162 22
-32 72 -29 118 7 50 40 97 54 165 49 122 -9 176 -66 175 -183 -1 -88 -32 -154
-101 -215 -60 -53 -66 -68 -46 -126 57 -169 -72 -353 -247 -354 -96 0 -96 1
-103 91 -11 166 -109 275 -252 281 -39 2 -51 -2 -66 -21 -10 -13 -19 -33 -19
-44 0 -29 39 -67 69 -67 40 0 92 -33 113 -71 27 -50 25 -146 -5 -189 -34 -52
-82 -75 -152 -75 -33 0 -68 4 -77 7 -17 7 -18 74 -18 1201 l0 1194 38 16 c56
24 63 25 117 26 34 1 66 -6 95 -21z"/>
<path d="M875 3994 c-165 -90 -147 -327 29 -379 114 -34 225 30 257 148 20 76
-15 166 -84 214 -50 35 -154 43 -202 17z m129 -135 c32 -25 34 -64 4 -96 -23
-25 -48 -29 -79 -12 -58 31 -31 125 37 128 6 1 23 -8 38 -20z"/>
<path d="M2309 3926 c-99 -41 -199 -106 -206 -134 -9 -36 8 -75 39 -86 20 -7
34 -4 64 13 22 11 77 40 124 63 47 23 93 48 103 56 38 33 6 113 -45 112 -13
-1 -48 -11 -79 -24z"/>
<path d="M1905 3628 c-56 -66 -131 -183 -161 -254 -31 -73 -25 -105 21 -126
43 -20 69 2 121 102 26 50 71 122 100 160 61 77 70 118 32 144 -40 28 -73 20
-113 -26z"/>
<path d="M779 2969 c-28 -28 -22 -76 12 -102 45 -33 99 -1 99 58 0 59 -69 86
-111 44z"/>
</g>
</svg>
