<?xml version="1.0" standalone="no"?>
<!DOCTYPE svg PUBLIC "-//W3C//DTD SVG 20010904//EN"
 "http://www.w3.org/TR/2001/REC-SVG-20010904/DTD/svg10.dtd">
<svg  version="1.0" xmlns="http://www.w3.org/2000/svg"
  viewBox="0 0 150.000000 150.000000"
 preserveAspectRatio="xMidYMid meet">
<metadata>
Created by potrace 1.16, written by Peter Selinger 2001-2019
</metadata>
<g transform="translate(0.000000,150.000000) scale(0.029297,-0.029297)"
fill="none" stroke="#000" stroke-width="40px" >
<path d="M1692 5105 c-55 -24 -98 -63 -128 -117 l-29 -53 -3 -972 -2 -973
-573 0 c-363 0 -586 -4 -609 -10 -57 -16 -119 -69 -150 -129 l-28 -53 0 -884
0 -884 -50 0 c-62 0 -108 -22 -116 -56 -13 -51 3 -151 34 -216 53 -113 128
-181 247 -224 l66 -24 1438 0 c1256 0 1444 2 1488 15 163 49 280 184 305 354
16 109 -15 151 -114 151 l-48 0 0 465 0 465 484 0 483 0 27 26 c36 36 36 91 0
125 -25 24 -28 24 -266 29 l-241 5 -53 185 c-29 102 -56 195 -59 208 l-5 22
562 0 c374 0 576 4 602 11 52 14 141 103 155 155 15 55 15 2173 0 2228 -14 52
-103 141 -155 155 -27 8 -518 11 -1634 11 -1353 -1 -1600 -3 -1628 -15z m3225
-187 l23 -21 0 -1056 0 -1055 -22 -23 -21 -23 -737 0 -737 0 -16 60 c-21 74
-72 134 -142 166 l-50 24 -752 0 -753 0 0 940 c0 811 2 945 15 970 8 15 20 30
27 33 7 3 717 6 1577 6 l1565 1 23 -22z m-1710 -2132 l28 -24 3 -866 2 -866
-614 -2 -614 -3 -26 -24 c-14 -14 -26 -33 -26 -43 0 -17 -12 -18 -166 -18
l-165 0 -11 30 c-21 61 -8 60 -668 60 l-600 0 0 865 0 866 25 24 24 25 1390 0
1390 0 28 -24z m397 -243 c3 -10 28 -99 56 -198 28 -99 53 -186 55 -192 3 -10
-30 -13 -145 -13 l-150 0 0 210 0 210 89 0 c77 0 90 -3 95 -17z m-2154 -1711
c0 -10 12 -29 26 -43 26 -24 26 -24 292 -27 306 -4 334 0 359 54 l17 34 623 0
624 0 -15 -29 c-21 -40 -68 -85 -113 -107 -37 -18 -87 -19 -1461 -22 l-1423
-2 -50 21 c-50 22 -129 99 -129 125 0 12 105 14 625 14 598 0 625 -1 625 -18z"/>
<path d="M3925 1868 c-70 -25 -114 -67 -151 -143 l-24 -50 0 -731 c0 -802 -1
-781 60 -856 17 -20 53 -48 82 -62 l52 -26 400 0 c234 0 416 4 437 10 51 14
118 76 145 134 l24 51 0 745 0 745 -24 50 c-28 60 -66 97 -126 124 -43 20 -63
21 -445 20 -256 0 -411 -4 -430 -11z m820 -193 l25 -24 0 -712 0 -713 -22 -23
-21 -23 -368 0 c-202 0 -375 3 -384 6 -45 18 -45 22 -45 754 0 506 3 697 12
713 24 46 24 46 411 47 l368 0 24 -25z"/>
</g>
</svg>
