<?xml version="1.0" standalone="no"?>
<!DOCTYPE svg PUBLIC "-//W3C//DTD SVG 20010904//EN"
 "http://www.w3.org/TR/2001/REC-SVG-20010904/DTD/svg10.dtd">
<svg  version="1.0" xmlns="http://www.w3.org/2000/svg"
 viewBox="0 0 512.000000 512.000000"
 preserveAspectRatio="xMidYMid meet">
<metadata>
Created by potrace 1.16, written by Peter Selinger 2001-2019
</metadata>
<g transform="translate(0.000000,512.000000) scale(0.100000,-0.100000)"
fill="none" stroke="#000" stroke-width="40px" >
<path d="M4830 5113 c-620 -66 -1099 -192 -1512 -399 -282 -142 -395 -231
-798 -630 l-335 -332 -464 -52 c-255 -28 -474 -56 -485 -62 -31 -15 -875 -858
-892 -890 -22 -42 -17 -84 14 -118 l27 -31 330 -48 330 -47 80 -83 c44 -45 81
-85 82 -89 2 -4 -94 -65 -212 -136 -178 -107 -217 -135 -230 -163 -34 -70 -48
-53 583 -685 528 -528 590 -587 622 -590 74 -7 88 8 227 238 70 118 131 213
135 211 4 -1 44 -38 89 -82 l83 -80 47 -330 48 -330 31 -27 c34 -31 76 -36
118 -14 32 17 875 861 890 892 6 11 34 230 62 485 l52 464 332 335 c399 403
488 516 630 798 220 439 381 1082 403 1612 l6 135 -28 28 c-27 26 -31 27 -129
25 -55 0 -117 -3 -136 -5z m75 -245 c-35 -310 -68 -510 -123 -736 l-27 -112
-368 368 -368 368 163 37 c242 56 423 85 668 110 19 2 41 5 47 5 9 2 11 -10 8
-40z m-666 -632 l444 -444 -22 -64 c-98 -273 -245 -536 -406 -727 -41 -47
-375 -387 -744 -756 l-671 -670 -397 396 c-276 275 -407 399 -427 403 -38 9
-91 -10 -110 -39 -9 -13 -16 -43 -16 -67 l0 -42 400 -401 400 -400 -68 -68
-67 -67 -633 633 -632 632 852 851 c510 509 883 873 928 906 146 107 299 197
450 264 99 44 250 103 265 104 6 0 210 -200 454 -444z m-2699 -1130 l-405
-404 -222 33 c-122 18 -229 35 -238 37 -10 2 105 123 320 338 l335 335 273 31
c149 17 288 32 307 33 33 1 17 -17 -370 -403z m234 -1335 l400 -400 -103 -172
-103 -171 -469 468 c-258 258 -465 472 -461 475 10 10 326 199 332 199 3 0
185 -180 404 -399z m1705 -138 l-32 -298 -336 -338 c-215 -216 -337 -332 -339
-322 -2 9 -19 116 -37 238 l-33 222 401 402 c221 221 403 400 405 398 2 -2
-11 -138 -29 -302z"/>
<path d="M3159 3850 c-193 -30 -364 -157 -448 -333 -50 -104 -65 -182 -58
-300 7 -122 36 -210 100 -305 114 -167 295 -262 498 -262 105 0 169 15 266 61
147 70 251 188 306 349 50 143 39 328 -28 459 -59 116 -160 218 -276 276 -94
48 -251 72 -360 55z m150 -210 c168 -28 303 -162 330 -329 49 -304 -271 -545
-550 -414 -82 38 -154 110 -192 192 -108 231 39 508 292 551 25 4 48 8 51 9 3
0 34 -4 69 -9z"/>
<path d="M1642 2635 c-36 -30 -47 -75 -28 -120 14 -33 59 -65 91 -65 31 0 82
31 94 56 47 105 -70 202 -157 129z"/>
<path d="M805 1511 c-16 -10 -173 -162 -347 -338 l-318 -319 0 -45 c0 -79 70
-126 141 -96 20 9 167 148 357 339 321 323 322 324 322 367 0 51 -21 86 -62
100 -43 15 -58 14 -93 -8z"/>
<path d="M1110 1243 c-17 -3 -203 -182 -567 -546 l-543 -542 0 -51 c0 -42 5
-56 26 -78 22 -21 36 -26 77 -26 l51 0 524 522 c288 288 533 536 544 551 23
33 27 86 9 120 -20 37 -71 58 -121 50z"/>
<path d="M1052 638 c-191 -190 -330 -337 -339 -357 -30 -71 17 -141 96 -141
l45 0 324 323 c178 177 330 335 339 351 20 38 9 91 -24 122 -19 18 -37 24 -71
24 l-46 0 -324 -322z"/>
</g>
</svg>
