<?xml version="1.0" standalone="no"?>
<!DOCTYPE svg PUBLIC "-//W3C//DTD SVG 20010904//EN"
 "http://www.w3.org/TR/2001/REC-SVG-20010904/DTD/svg10.dtd">
<svg  version="1.0" xmlns="http://www.w3.org/2000/svg"
  viewBox="0 0 150.000000 150.000000"
 preserveAspectRatio="xMidYMid meet">
<metadata>
Created by potrace 1.16, written by Peter Selinger 2001-2019
</metadata>
<g transform="translate(0.000000,150.000000) scale(0.029297,-0.029297)"
fill="none" stroke="#000" stroke-width="40px" >
<path d="M4055 5104 c-155 -80 -167 -286 -23 -381 39 -27 49 -28 190 -33 l149
-5 -585 -584 -585 -584 -405 399 c-477 469 -463 459 -625 459 -92 0 -113 -4
-156 -25 -68 -33 -1964 -1912 -1996 -1978 -31 -63 -24 -164 15 -220 56 -82
180 -115 271 -73 28 12 317 293 952 925 l913 908 407 -401 c474 -467 459 -456
618 -456 159 0 170 7 462 298 214 213 243 246 243 273 0 48 -34 84 -78 84 -34
0 -51 -15 -272 -235 -150 -149 -250 -240 -273 -250 -49 -20 -125 -19 -164 3
-17 9 -219 201 -447 426 -366 359 -421 409 -457 417 -94 21 -39 70 -1048 -932
-650 -646 -931 -919 -946 -919 -28 0 -55 30 -55 61 0 19 212 234 943 960 518
514 954 943 969 953 41 27 91 35 144 24 45 -10 72 -34 472 -427 233 -229 434
-420 445 -424 40 -15 116 -9 150 12 18 11 319 307 670 658 l637 638 0 50 c0
30 -7 60 -16 73 -32 46 -60 52 -259 52 -172 0 -186 1 -205 20 -26 26 -25 52 1
76 20 18 42 19 419 19 322 0 400 -3 413 -14 15 -12 17 -54 17 -420 0 -303 -3
-410 -12 -419 -17 -17 -64 -15 -82 4 -13 13 -16 46 -16 202 0 169 -2 190 -20
220 -27 44 -77 67 -126 58 -34 -7 -79 -47 -376 -344 -307 -306 -338 -340 -338
-370 0 -44 38 -82 82 -82 29 0 61 29 325 292 l293 293 0 -144 c0 -136 1 -146
26 -192 15 -26 45 -61 67 -76 36 -25 49 -28 123 -28 75 0 86 3 125 30 23 17
53 50 66 74 l23 44 0 442 0 443 -32 48 c-20 29 -50 57 -77 71 l-44 23 -441 0
c-379 0 -445 -2 -471 -16z"/>
<path d="M2305 2629 c-312 -32 -584 -110 -870 -249 -778 -378 -1309 -1118
-1420 -1980 -9 -69 -15 -169 -13 -222 3 -87 6 -99 28 -123 55 -59 -69 -55
1784 -55 l1705 0 20 26 c27 34 27 64 0 97 l-20 27 -244 2 -244 3 349 395 c192
217 359 414 371 438 17 34 20 56 17 106 -5 86 -37 134 -113 171 -64 32 -128
31 -188 -1 -20 -10 -216 -179 -438 -374 l-402 -355 -86 -7 c-133 -10 -217 -47
-304 -135 -52 -51 -97 -130 -116 -201 l-12 -42 -724 0 -725 0 0 38 c0 116 48
356 102 512 16 47 56 139 88 205 291 597 855 992 1522 1064 389 43 822 -54
1163 -260 443 -268 760 -702 878 -1204 27 -112 47 -250 47 -317 l0 -38 -335 0
c-322 0 -336 -1 -355 -20 -12 -12 -20 -33 -20 -55 0 -22 8 -43 20 -55 20 -20
33 -20 633 -20 593 0 613 1 645 20 18 11 41 34 53 52 19 31 20 44 15 173 -17
469 -202 970 -505 1373 -492 652 -1253 1028 -2070 1021 -86 -1 -192 -5 -236
-10z m175 -318 l0 -169 -47 -6 c-27 -3 -79 -8 -117 -11 -352 -33 -782 -216
-1065 -454 l-75 -62 -120 121 -121 121 45 41 c252 229 638 429 1003 518 137
34 338 64 455 68 l42 2 0 -169z m435 143 c385 -56 773 -217 1084 -449 53 -39
116 -90 141 -113 l45 -41 -121 -121 -120 -121 -75 62 c-283 238 -712 421
-1065 454 -38 3 -90 8 -116 11 l-48 6 0 170 0 170 88 -7 c48 -3 132 -13 187
-21z m-1908 -1018 c-215 -248 -368 -540 -448 -852 -31 -122 -59 -306 -59 -384
l0 -50 -172 0 -171 0 6 108 c28 472 234 987 543 1351 43 51 86 101 94 111 14
18 23 11 137 -103 l122 -121 -52 -60z m3444 129 c286 -355 480 -857 506 -1308
l6 -107 -171 0 -172 0 0 50 c0 78 -28 262 -59 384 -76 297 -220 578 -419 816
l-80 95 120 121 120 122 47 -52 c25 -28 71 -82 102 -121z m-856 -451 c9 -9 15
-27 13 -39 -3 -22 -641 -755 -658 -755 -4 0 -15 11 -23 23 -16 25 -78 86 -111
110 -17 13 7 36 320 312 187 164 356 314 377 332 42 37 58 40 82 17z m-948
-759 c60 -18 144 -89 173 -146 11 -21 20 -43 20 -49 0 -7 -93 -10 -280 -10
-187 0 -280 3 -280 10 0 27 44 92 91 134 79 71 172 92 276 61z"/>
</g>
</svg>
