<svg width="151" height="151" viewBox="0 0 151 151" fill="none" xmlns="http://www.w3.org/2000/svg">
<path fill-rule="evenodd" clip-rule="evenodd" d="M119.092 0.556641C117.699 1.20264 116.181 2.73281 115.72 3.95508C114.892 6.14766 115.581 9.23145 117.232 10.7323C118.792 12.1497 119.771 12.4105 124.179 12.5813L128.389 12.7441L111.034 29.9924L93.6797 47.2406L84.8525 38.4768C69.1482 22.885 69.2736 22.9978 66.815 22.251C65.2104 21.7638 64.2319 21.6407 62.8441 21.7521C58.8747 22.0708 60.4594 20.6625 29.4478 51.4307C12.5004 68.245 1.00372 79.8694 0.682917 80.5154C0.343073 81.2004 0.148249 82.2396 0.147663 83.3725C0.146784 84.8423 0.300593 85.4024 1.02803 86.5793C2.6502 89.2031 6.16114 90.2394 8.92354 88.9099C9.68848 88.5419 19.1953 79.2765 36.8273 61.7153L63.5713 35.0789L75.5508 46.9403C83.9432 55.2501 87.9237 58.9922 88.8436 59.4375C92.1844 61.055 95.9136 60.9495 98.8758 59.1542C99.7907 58.5999 103.263 55.3825 107.222 51.421C113.273 45.365 114.004 44.5318 114.029 43.6564C114.06 42.5496 112.916 41.3086 111.863 41.3086C111.468 41.3086 108.833 43.6995 104.254 48.2115C99.5812 52.8158 96.837 55.3014 96.012 55.6758C94.524 56.3514 92.9238 56.4023 91.5269 55.8188C90.8777 55.5475 85.9895 50.959 78.3489 43.449C71.6686 36.8827 65.908 31.3468 65.5477 31.1464C64.6547 30.6501 62.7246 30.6738 61.7291 31.193C61.2782 31.4279 48.8549 43.5855 34.1215 58.2094C19.3881 72.8332 7.04063 84.9065 6.68321 85.0386C5.81397 85.3603 4.57266 84.4368 4.44639 83.3748C4.36231 82.6667 7.40479 79.5428 32.0956 54.9858C47.3543 39.8095 60.2048 27.1573 60.6522 26.8696C61.7648 26.1536 64.1083 25.9151 65.5034 26.3754C66.3835 26.666 69.3313 29.41 78.8004 38.753C85.5753 45.4374 91.3846 50.9356 91.9096 51.16C93.1558 51.6923 94.4455 51.6688 95.5957 51.0932C96.1113 50.8351 105.004 42.1685 115.356 31.8337C135.483 11.7428 135.018 12.2766 134.174 10.239C133.972 9.75293 133.478 9.0958 133.075 8.7791C132.407 8.25381 131.864 8.20283 126.889 8.19873C120.679 8.19375 120.026 8.03438 119.877 6.48457C119.817 5.86582 119.967 5.3083 120.289 4.95293C120.77 4.42119 121.359 4.39453 132.614 4.39453C144.043 4.39453 144.453 4.41387 145.02 4.98047C145.586 5.54678 145.605 5.95693 145.605 17.2852C145.605 28.6134 145.586 29.0235 145.02 29.5898C144.202 30.4075 143.134 30.3316 142.404 29.4038C141.838 28.6846 141.797 28.253 141.797 23.0757V17.5195L140.801 16.5234C139.682 15.4049 138.283 15.1995 136.875 15.9475C136.44 16.1786 131.81 20.6508 126.587 25.8858C118.165 34.3257 117.09 35.5078 117.09 36.3217C117.09 37.5185 118.048 38.4765 119.244 38.4765C120.057 38.4765 121.152 37.4877 128.754 29.8881L137.347 21.2994L137.448 25.6644C137.544 29.8189 137.588 30.0961 138.362 31.413C139.811 33.8783 142.734 35.0402 145.521 34.2598C147.258 33.7737 149.141 31.9576 149.64 30.2883C150.149 28.582 150.149 5.98828 149.64 4.28203C149.175 2.72549 147.275 0.825294 145.718 0.360352C144.847 0.0999032 141.149 0.00175868 132.388 0.00644618C121.202 0.0123056 120.173 0.055079 119.092 0.556641ZM71.0449 72.8411C46.3436 74.3821 24.5889 87.1951 11.4188 107.959C4.77481 118.434 0.303815 132.787 0.179304 144.042C0.143561 147.284 0.387311 147.923 2.16358 149.249C2.97217 149.853 2.99093 149.854 52.7133 149.929L102.454 150.005L103.229 149.395C104.212 148.622 104.289 147.126 103.388 146.31C102.828 145.803 102.123 145.738 95.6558 145.605L88.5398 145.459L98.8939 133.74C104.589 127.295 109.472 121.565 109.745 121.008C111.041 118.365 110.189 115.063 107.804 113.485C106.175 112.407 103.432 112.174 101.883 112.982C101.309 113.281 95.4451 118.287 88.8519 124.107L76.8639 134.689L74.2298 134.815C71.9669 134.923 71.286 135.088 69.3999 135.984C65.8939 137.648 62.8494 141.313 62.2304 144.613L62.044 145.605H40.5355H19.0266L19.2073 143.628C19.9307 135.713 21.6721 129.497 25.055 122.754C32.8459 107.225 47.0848 96.411 64.4531 92.8327C67.4605 92.2131 68.5928 92.1387 75 92.1387C81.4072 92.1387 82.5395 92.2131 85.5469 92.8327C102.924 96.4128 117.15 107.217 124.945 122.754C128.302 129.446 129.996 135.519 130.806 143.774L130.986 145.605H121.189C112.054 145.605 111.347 145.642 110.716 146.154C109.771 146.919 109.775 148.69 110.724 149.458C111.382 149.991 112.115 150.01 129.219 149.933C146.685 149.855 147.043 149.842 147.837 149.249C149.613 147.923 149.856 147.284 149.821 144.042C149.669 130.318 143.856 114.462 134.392 101.956C131.638 98.3165 124.228 90.9135 120.703 88.28C107.393 78.3349 93.288 73.3526 77.0508 72.8602C74.7144 72.7893 72.0117 72.7808 71.0449 72.8411ZM72.6563 82.4707V87.5977L71.2646 87.6029C69.3319 87.6105 64.3591 88.3441 61.1414 89.0965C52.512 91.1147 43.3901 95.6464 36.675 101.252L34.4314 103.124L30.8388 99.5402C28.8627 97.5689 27.2461 95.8617 27.2461 95.7466C27.2461 95.3874 31.9471 91.58 34.8633 89.5772C43.5073 83.6402 53.3786 79.7145 63.7207 78.1008C67.7048 77.4791 68.0971 77.4381 70.5322 77.3877L72.6563 77.3438V82.4707ZM87.3047 78.2429C96.769 79.8542 106.051 83.5553 114.212 88.9717C117.495 91.1511 122.754 95.3168 122.754 95.7384C122.754 95.8582 121.137 97.5689 119.161 99.5402L115.569 103.124L113.325 101.252C106.69 95.7135 98.1785 91.4367 89.3783 89.2189C86.2986 88.4429 80.7067 87.5977 78.6521 87.5977H77.3437V82.4259V77.2541L80.4932 77.4369C82.2255 77.5371 85.2905 77.9001 87.3047 78.2429ZM27.7222 102.575L31.2826 106.128L28.9421 108.912C21.0366 118.314 16.19 129.796 14.9543 142.048C14.7861 143.716 14.6484 145.199 14.6484 145.344C14.6484 145.488 12.3413 145.605 9.52149 145.605H4.39454L4.39483 144.653C4.39571 142.605 5.34024 135.622 6.04923 132.422C8.20548 122.69 12.4412 113.432 18.4474 105.322C20.3751 102.72 23.62 99.0234 23.9774 99.0234C24.0788 99.0234 25.7637 100.622 27.7222 102.575ZM127.895 100.854C131.887 105.217 135.716 111.03 138.752 117.334C142.572 125.268 144.711 133.452 145.472 143.042L145.675 145.605H140.513C137.674 145.605 135.352 145.488 135.352 145.344C135.352 143.937 134.597 138.305 134.032 135.492C132.135 126.047 127.113 115.857 120.753 108.545L118.714 106.201L122.268 102.612C124.222 100.638 125.911 99.0234 126.021 99.0234C126.131 99.0234 126.974 99.8476 127.895 100.854ZM105.623 117.489C106.037 117.947 106.098 118.247 105.888 118.787C105.598 119.535 86.823 140.918 86.4574 140.918C86.3388 140.918 85.8076 140.339 85.2773 139.631C84.7468 138.923 83.7305 137.907 83.0185 137.374L81.7245 136.404L82.3904 135.74C82.7569 135.374 87.6709 130.995 93.3105 126.007C104.079 116.483 104.469 116.214 105.623 117.489ZM78.6621 139.851C80.3329 140.633 82.3796 142.712 83.0443 144.303C83.2928 144.898 83.4961 145.434 83.4961 145.495C83.4961 145.556 79.6729 145.605 75 145.605C70.3271 145.605 66.5039 145.556 66.5039 145.495C66.5039 144.897 67.6494 142.958 68.6402 141.879C70.4039 139.958 72.2607 139.166 75 139.166C76.6904 139.166 77.5351 139.324 78.6621 139.851Z" fill="black"/>
</svg>
